inDegrees=yes
name=ik_OpenSim_Sub02_CSBaseline_Orientations
DataType=double
version=3
OpenSimVersion=4.4-2022-07-23-0e9fedc
endheader
time	pelvis_tilt	pelvis_list	pelvis_rotation	pelvis_tx	pelvis_ty	pelvis_tz	hip_flexion_r	hip_adduction_r	hip_rotation_r	knee_angle_r	knee_angle_r_beta	ankle_angle_r	hip_flexion_l	hip_adduction_l	hip_rotation_l	knee_angle_l	knee_angle_l_beta	ankle_angle_l
53.75	2.900248793579477	2.974699439505981	-28.63119628378863	0	0.93	0	3.518320057990342	-2.915335753740007	-17.17456916123984	46.36856863771558	0.8092841921651186	-16.51708784283866	-0.2891291758717131	10.12873112594377	30.59640215344408	0.02095155522082972	0.0003656736220168862	0.8321666256375947
53.76	2.85110914437843	3.406630241927553	-28.63440553818659	0	0.93	0	5.472258283637277	-5.083851110252468	-17.17677865227251	49.47913996662416	0.8635739034727088	-17.20547552333778	-0.4812753887716882	10.34453080607682	30.80502243753043	0.0210703508716768	0.0003677469972612174	1.280141200244139
53.77	2.836668176215676	3.939348596992519	-28.63620950477949	0	0.93	0	7.69896520330905	-7.639237947313134	-17.17806480377692	52.79393480677474	0.9214279874614555	-16.85154158927498	-0.6027479319109835	10.67980793976372	30.8781610807956	0.02118055222151795	0.0003696703736560876	1.663420646974286
53.78	2.857559672219967	4.439812237171961	-28.63706313762325	0	0.93	0	9.832148525958292	-10.11462881455331	-17.17864240723949	55.79884342463221	0.9738735365646205	-15.18967157800593	-0.7562535678481731	10.99837729664155	30.81322051920852	0.02131892033949695	0.0003720853528946091	2.056104501676002
53.79	2.862000851604656	4.798887167163218	-28.63729457594176	0	0.93	0	11.61875299259418	-12.1310616274656	-17.17870762563691	58.2675507952109	1.01696060844947	-13.22493902366793	-0.923581703422838	11.16404399257757	30.63773005875149	0.02127450300507667	0.0003713101241640158	2.370776236790023
53.8	2.82323520949446	4.959009179425967	-28.63702705849689	0	0.93	0	12.82251051555976	-13.41120642070008	-17.17834239605246	59.75678835726254	1.042952707251645	-11.50796402952807	-1.155682217535093	11.11762586891155	30.39806154526971	0.02127279473011439	0.0003712803091413946	2.694055721158829
53.81	2.764792856485145	4.984362231105723	-28.63655308148132	0	0.93	0	13.64940687854682	-14.25780842085495	-17.17777494123784	60.47696495977313	1.055522160161281	-10.24866663526825	-1.436031974953777	10.92139441127369	30.11532909674022	0.02129566807117847	0.0003716795242538944	3.031653549334866
53.82	2.693520590802063	4.968805934245117	-28.63609900014815	0	0.93	0	14.29371439581735	-14.91309111960805	-17.17719154662382	60.4289909830998	1.054684856313057	-9.602318648090522	-1.718388869595447	10.68850705132559	29.80573988741708	0.0213328037044044	0.0003723276633235	3.334191381157701
53.83	2.586522782286886	4.98717289487452	-28.63575709200728	0	0.93	0	15.05263279425328	-15.57358986747363	-17.17672231421619	60.07160730580454	1.048447334451369	-9.240694315119971	-1.938924175984767	10.4582159562646	29.52459271203941	0.0213980819633661	0.0003734669838723512	3.625749061777952
53.84	2.468219338941081	5.046495639163042	-28.63562714316261	0	0.93	0	15.89569297182673	-16.16059242593893	-17.17645741269214	59.37731999961581	1.036329735003574	-9.13903683265878	-2.136692743808646	10.26878825435352	29.22854371835092	0.02160067242443537	0.0003770028544511432	3.932460802389475
53.85	2.334969343934484	5.129453974968113	-28.63576341264231	0	0.93	0	16.6507404020589	-16.48327814653312	-17.17646126148554	58.1620575257706	1.015119403559044	-9.084563150028639	-2.295218445675769	10.10178070259354	28.95494555569796	0.02179187410209354	0.0003803399532616152	4.215912076791507
53.86	2.212719575868341	5.21256109289156	-28.63589828331468	0	0.93	0	17.39091477442717	-16.60011161284181	-17.17647433567053	56.80657948812361	0.991461848863632	-8.805102957826909	-2.45462562553788	9.926052591423739	28.66289736972037	0.02205917278283353	0.0003850051953267652	4.500428789646078
53.87	2.078894697995755	5.306900782108745	-28.63576029367387	0	0.93	0	18.03311795639149	-16.49489975015598	-17.17625577608174	55.15589437587679	0.9626519587412729	-8.459859761888429	-2.601616396529494	9.758684082042381	28.37494865619454	0.02237821054591761	0.0003905734547307799	4.810380423177195
53.88	1.946104390169547	5.315118242722704	-28.63534964279105	0	0.93	0	18.45449968430357	-16.04284158746065	-17.17571282599638	53.24691971450997	0.929334065563278	-7.977528478455802	-2.780657987373015	9.516532492700403	28.08525855365903	0.02264551909062369	0.0003952388689546155	5.071063122269905
53.89	1.779268137186524	5.218208232493089	-28.63459425214795	0	0.93	0	18.67230443201397	-15.20174378219138	-17.17480629017847	51.13754622136658	0.8925185529536319	-7.260719905233131	-2.971770278673003	9.167842384440569	27.80238375284685	0.02289173206971356	0.0003995360961008777	5.346232235474948
53.9	1.573616827017811	5.039748502542946	-28.63350809591243	0	0.93	0	18.74070571579146	-14.08842319204552	-17.17344433437849	48.90235232707717	0.8535070600778076	-6.317509681351956	-3.175936381194225	8.72214034756289	27.52285577597931	0.0231728993139524	0.0004044433902616044	5.645740109634766
53.91	1.36185039340875	4.843515865312066	-28.63207215768493	0	0.93	0	18.72292167455278	-12.89907699664378	-17.17155839152667	46.46162148686864	0.8109082707612012	-5.428465510382394	-3.386840033823015	8.259007853258913	27.27390517624402	0.02344662429771919	0.000409220792473303	5.950515910995634
53.92	1.138886802087616	4.644530053597641	-28.63028319598554	0	0.93	0	18.69523661944829	-11.70488411937326	-17.16902754206804	43.84390992449669	0.7652205851302857	-4.681967467974152	-3.596611234483593	7.784188071392217	27.04832716888891	0.02363245514646586	0.000412464152635708	6.252730522122629
53.93	0.9327085504205228	4.424317838872575	-28.62775712486867	0	0.93	0	18.6788755647874	-10.55392269987781	-17.16536858761273	41.16081177543641	0.7183916882750181	-4.013797310800116	-3.834737987555282	7.299459992820391	26.86557055875544	0.0238695628686662	0.000416602463070008	6.566251795091604
53.94	0.6950537093443188	4.21725560375383	-28.62443286879941	0	0.93	0	18.72734107300715	-9.498038207486472	-17.1596691275323	38.39339418862657	0.6700911396075906	-3.621946446389969	-4.019937902955131	6.801992388961885	26.68777058756195	0.02408545223738069	0.0004203704433741279	6.85668301826775
53.95	0.4763756162725427	3.994720744727626	-28.61938263464725	0	0.93	0	18.78226743511233	-8.547930293453319	-17.14992777511448	35.62428442722478	0.6217610569220147	-3.383443368384706	-4.243323416887987	6.295816223648836	26.52433097693778	0.02428962812244996	0.0004239339848217603	7.174817078462411
53.96	0.2568499749697903	3.773768269037279	-28.6115643485327	0	0.93	0	18.87909314064276	-7.696072202913011	-17.1298708230693	32.87949890402669	0.5738555122811329	-3.313657713602371	-4.483505819418284	5.79057505310134	26.37416974116129	0.02451092070459296	0.0004277962689903955	7.50565206468047
53.97	0.03596453329238902	3.533291106532084	-28.59784666776885	0	0.93	0	19.04580958600935	-6.905210241462732	-17.07146586353519	30.23240229694285	0.5276549608691492	-3.294737811985845	-4.72974974992339	5.270643971094203	26.23366368075325	0.02474691294739044	0.0004319151106363774	7.825318460478121
53.98	-0.1720004851210929	3.39485640183978	-28.58175916907243	0	0.93	0	19.25482085021276	-6.225123117444022	-16.78955837177272	27.54974834327343	0.4808338166859744	-3.346344895136932	-4.932385832004106	4.838165446478913	26.08510206023364	0.02499945070569872	0.0004363227260044627	8.141260241332208
53.99	-0.3032319481800595	3.423693748947898	-28.57634971296194	0	0.93	0	19.45724566833514	-5.732723645114983	-16.12024759298371	24.72356077284913	0.4315075383031312	-3.561906684348744	-5.110163530889031	4.614219957025628	25.9311431783736	0.02532955610697364	0.0004420841521353271	8.42799569207294
54	-0.4124119282243298	3.483220460597133	-28.57613660219493	0	0.93	0	19.59302711321089	-5.326533642908927	-15.39054340037612	21.77441379786402	0.3800352134644103	-3.940866451821396	-5.306526196732903	4.40963618780776	25.76091469070316	0.02565126181600454	0.0004476989759803791	8.729338392030128
54.01	-0.5094875502229897	3.548539356985152	-28.57649337410252	0	0.93	0	19.64409949480644	-4.995263417673992	-14.68625572947989	18.67893935720637	0.3260089925636043	-4.495301219263518	-5.519726735788577	4.217611061338421	25.58445665259888	0.02600988742921614	0.0004539581737129051	9.050995278210159
54.02	-0.5833175812663157	3.617083066234273	-28.57622186026305	0	0.93	0	19.61769292069825	-4.731462255861357	-13.9980892353107	15.47788410329684	0.27014003884462	-5.169158912334823	-5.756280319369566	4.034503546765387	25.40497671753062	0.02644555398723041	0.0004615619895910851	9.363078268308652
54.03	-0.6366450396493708	3.678131942872451	-28.57520528863412	0	0.93	0	19.56862587574841	-4.490688490239806	-13.24533740407016	12.32099135259141	0.2150418662124697	-5.739952282507685	-5.99940703400956	3.859892373411002	25.21166145751492	0.02693130819356591	0.0004700399998470515	9.654222684999464
54.04	-0.6763664644073355	3.741024786233318	-28.57382872057587	0	0.93	0	19.53203240782462	-4.254352267545886	-12.34049251292992	9.386596642285639	0.1638270169645288	-6.010595885031703	-6.241547039636473	3.703266688314214	24.99937751657251	0.02746882623262944	0.0004794214594175735	9.887705165576213
54.05	-0.6937457623906079	3.807420245041612	-28.57050870365739	0	0.93	0	19.54807318646539	-4.095405299771329	-11.21287313304884	6.782688512454213	0.1183802466795224	-6.004189983065123	-6.524155529236622	3.557180923044156	24.80438452806791	0.02799794969664313	0.0004886564060141702	10.16489754678191
54.06	-0.6973022889434788	3.862596431624949	-28.56542140590659	0	0.93	0	19.60025920833392	-4.008834927148496	-9.865189403664942	4.592650428803282	0.08015687137574669	-5.73060777250477	-6.801555588692779	3.406541730155658	24.61245864603173	0.02862466396081296	0.0004995946333931472	10.40466336887912
54.07	-0.6899203251272809	3.903592918645443	-28.55931169243174	0	0.93	0	19.67214683374439	-4.00613638104881	-8.310570295980403	2.80030727699864	0.04887458205118313	-5.167509154369643	-7.096016142147632	3.238985367655042	24.41469418782858	0.0293490218634373	0.0005122370637567825	10.62189345518399
54.08	-0.6807818155387966	3.932404514083998	-28.55269496745804	0	0.93	0	19.74586958198488	-4.065498658170315	-6.685695261300677	1.390319142064717	0.0242656466825321	-4.316346920166002	-7.399905065166933	3.044010584402461	24.18764202210815	0.03015706710988331	0.0005263401138123544	10.83405079342595
54.09	-0.6737339088201033	3.963195897283401	-28.54441883852951	0	0.93	0	19.95876581336034	-4.362695942978791	-5.157239589509763	0.4401248008325976	0.007681626894213109	-3.603009350660573	-7.70821519636231	2.855467023848528	23.96904337490631	0.03120374499438728	0.0005446080891047576	11.0573803210265
54.1	-0.6557554029622106	3.979547829220377	-28.53203101663197	0	0.93	0	20.49563400601822	-4.815500939257817	-3.882327626518908	0.1602412424410912	0.002796737278083517	-2.903694930315892	-8.065715579200512	2.601580396879165	23.70758252986472	0.03240618143486956	0.0005655945640371343	11.30601117520144
54.11	-0.6450822979512209	3.990085933187036	-28.51943283446782	0	0.93	0	21.00078946832019	-5.167377924936659	-2.675704405690122	0.09615558110621554	0.001678231484471913	-1.87792984798675	-8.356459368792976	2.430739423290817	23.58246618804063	0.03363940401808583	0.0005871183585242078	11.48075192297772
54.12	-0.6252344763773241	3.990274999013444	-28.50388887558872	0	0.93	0	21.40546966075153	-5.419906519877562	-1.57124618076458	0.06985872487836269	0.001219264760372304	-0.826233134118235	-8.729451258579603	2.136556811422234	23.29216014731122	0.03526192839442702	0.0006154367510852292	11.69526059292022
54.13	-0.6100164527609364	3.993887086760862	-28.48368008752998	0	0.93	0	21.78633198103331	-5.595957214632372	-0.739678786574828	0.05647089314168068	0.0009856030168642125	-0.01502112604420562	-9.102987595028019	1.844466846536756	23.05264525917799	0.03713536462862334	0.0006481343816981185	11.93703001480687
54.14	-0.5862410028908228	3.949230305714591	-28.46115650343279	0	0.93	0	21.99157860142384	-5.520667024209197	-0.1593959267252401	0.05032784607075842	0.0008783866193716256	0.8321393879549334	-9.486993887867914	1.555813942898048	22.88452903632794	0.03971193517201769	0.0006931040210902494	12.10572585672634
